<svg width="229" height="55" viewBox="0 0 229 55" fill="none" xmlns="http://www.w3.org/2000/svg">
<rect width="56.7768" height="55" fill="#042F15"/>
<path fill-rule="evenodd" clip-rule="evenodd" d="M0 0H56.8222V54.8819H31.6186C32.0402 53.9138 32.4648 53.0161 32.8118 52.3071C33.0345 52.0705 33.2479 51.8394 33.4453 51.6122L33.4497 51.6071C34.099 50.8602 34.7496 50.1118 35.3589 49.3328C35.759 48.947 36.1457 48.5478 36.5018 48.1151C38.2861 45.9472 40.0024 43.3397 40.6145 40.5549C41.236 37.7204 40.9746 34.4194 40.2358 31.6346C40.1291 31.2274 40.0064 30.8242 39.8784 30.4237C40.0788 30.442 40.2787 30.4489 40.4775 30.4557C40.9639 30.4725 41.444 30.4891 41.9107 30.6723C42.1822 30.7785 42.4332 30.9258 42.6843 31.0731C42.9575 31.2334 43.2308 31.3937 43.531 31.5016C44.4231 31.8201 45.6261 31.394 46.2888 30.7798C46.7983 30.3081 47.0383 29.7006 47.0663 29.0756C47.2543 28.9721 47.437 28.8498 47.6064 28.6966C48.7066 27.7128 49.3387 25.9695 48.6319 24.5785C48.3145 23.9562 47.7944 23.4683 47.285 22.9952C46.7572 22.5044 46.2295 22.0138 45.7017 21.5233C45.1746 21.0333 44.6475 20.5434 44.1204 20.0532C44.2018 19.7843 44.2058 19.4739 44.0991 19.1285C43.5204 17.2616 41.6787 16.2133 39.8317 15.7429C40.0597 12.2444 42.8962 10.7095 44.3071 10.1598C44.2538 9.06708 41.0452 7.9502 40.3878 7.88703C38.6528 7.71902 36.7832 7.81042 35.0482 7.91526L31.3049 8.97031L34.7148 7.36286C34.132 6.64515 33.1572 6.30108 32.225 6.37231C32.0879 6.38294 31.6013 6.53238 31.0658 6.69682C30.7212 6.80266 30.3563 6.91471 30.0513 6.99997C29.7739 7.1075 29.4766 7.17739 29.1632 7.20292L25.8693 8.67328L27.9563 7.23652C23.3475 7.41662 19.1068 8.79962 15.5942 11.9997C14.5348 12.9656 13.6854 14.0807 12.8345 15.1979C12.2029 16.027 11.5705 16.8573 10.8507 17.6285C10.8294 17.6662 10.8067 17.7038 10.7827 17.7414C9.88725 19.127 8.42808 19.9942 6.96789 20.8621C6.05554 21.4044 5.1428 21.9469 4.36691 22.6162C4.26023 22.7078 4.0531 22.8638 3.80176 23.053C3.1828 23.5191 2.29564 24.187 1.97982 24.5933C1.81045 24.8123 1.74911 25.0166 1.76644 25.2061C7.55011 25.7317 9.23307 27.0421 9.23307 27.0421C7.37942 26.5542 4.6403 26.2007 1.65445 25.8862C1.26905 26.0247 0.883635 26.1698 0.491567 26.319C0.327835 26.3816 0.164045 26.4441 0 26.5059V0ZM7.79895 54.8819H8.28079C8.25056 54.3348 8.17738 53.8108 8.04353 53.3474C7.99569 53.8367 7.91046 54.3538 7.79895 54.8819ZM38.6703 20.4851C38.1286 20.9137 37.4983 21.4124 36.6152 21.205C35.7028 21.0629 35.3249 20.8925 35.2842 20.1607C35.7851 19.5034 36.088 19.5071 36.5011 19.5122C36.5382 19.5126 36.5761 19.5131 36.6152 19.5131C37.7593 19.4444 38.483 19.485 39.413 20C39.1738 20.0867 38.9324 20.2777 38.6703 20.4851Z" fill="#10A74C"/>
<rect x="106.23" y="36.4192" width="41.2146" height="15.824" fill="#042F15"/>
<path d="M73.4362 30.9243C71.4271 30.9243 69.4786 30.656 67.5906 30.1193C65.7268 29.5582 64.226 28.8385 63.0884 27.9603L65.0853 23.496C66.1746 24.301 67.4696 24.9475 68.9703 25.4354C70.471 25.9233 71.9718 26.1672 73.4725 26.1672C75.1427 26.1672 76.3771 25.9233 77.1759 25.4354C77.9747 24.9231 78.3741 24.2522 78.3741 23.4228C78.3741 22.8129 78.132 22.3128 77.6479 21.9225C77.188 21.5077 76.5829 21.1784 75.8325 20.9345C75.1064 20.6905 74.1139 20.4222 72.8553 20.1294C70.9188 19.6659 69.3334 19.2024 68.0989 18.7389C66.8644 18.2754 65.7994 17.5313 64.9038 16.5067C64.0324 15.4821 63.5967 14.116 63.5967 12.4083C63.5967 10.9202 63.9961 9.57845 64.7949 8.38308C65.5936 7.16331 66.7918 6.1997 68.3894 5.49224C70.0111 4.78477 71.9839 4.43104 74.3076 4.43104C75.9293 4.43104 77.5148 4.6262 79.0639 5.01653C80.6131 5.40685 81.9686 5.96794 83.1304 6.6998L81.315 11.2007C78.9671 9.85899 76.6192 9.18812 74.2713 9.18812C72.6253 9.18812 71.4029 9.45647 70.6041 9.99317C69.8296 10.5299 69.4423 11.2373 69.4423 12.1156C69.4423 12.9938 69.8901 13.6525 70.7857 14.0916C71.7055 14.5063 73.0973 14.921 74.9611 15.3357C76.8975 15.7992 78.483 16.2628 79.7175 16.7263C80.952 17.1898 82.0049 17.9216 82.8763 18.9218C83.7719 19.922 84.2197 21.276 84.2197 22.9837C84.2197 24.4474 83.8082 25.7891 82.9852 27.0089C82.1864 28.2043 80.9762 29.1557 79.3544 29.8631C77.7326 30.5706 75.7599 30.9243 73.4362 30.9243Z" fill="#042F15"/>
<path d="M99.7122 10.5055C102.133 10.5055 104.081 11.2373 105.558 12.701C107.058 14.1648 107.809 16.3359 107.809 19.2146V30.4852H102.145V20.0928C102.145 18.5315 101.806 17.3727 101.128 16.6165C100.45 15.8358 99.4701 15.4455 98.1872 15.4455C96.7591 15.4455 95.6214 15.8968 94.7743 16.7995C93.9271 17.6777 93.5035 18.995 93.5035 20.7515V30.4852H87.8394V3.33325H93.5035V12.8474C94.2538 12.0912 95.1615 11.5179 96.2266 11.1275C97.2916 10.7128 98.4535 10.5055 99.7122 10.5055Z" fill="#042F15"/>
<path d="M132.29 20.7149C132.29 20.7881 132.254 21.3004 132.181 22.2518H117.404C117.67 23.4716 118.299 24.4352 119.292 25.1426C120.284 25.8501 121.519 26.2038 122.995 26.2038C124.012 26.2038 124.908 26.0575 125.682 25.7647C126.481 25.4476 127.219 24.9597 127.897 24.301L130.91 27.5944C129.071 29.7168 126.384 30.778 122.85 30.778C120.647 30.778 118.699 30.351 117.004 29.4972C115.31 28.619 114.003 27.4114 113.083 25.8745C112.163 24.3376 111.703 22.5933 111.703 20.6417C111.703 18.7145 112.151 16.9824 113.047 15.4455C113.967 13.8842 115.213 12.6766 116.787 11.8228C118.384 10.9446 120.163 10.5055 122.124 10.5055C124.036 10.5055 125.767 10.9202 127.316 11.7496C128.865 12.5791 130.075 13.7744 130.947 15.3357C131.842 16.8726 132.29 18.6657 132.29 20.7149ZM122.16 14.8234C120.877 14.8234 119.8 15.1894 118.929 15.9212C118.057 16.6531 117.525 17.6533 117.331 18.9218H126.953C126.759 17.6777 126.227 16.6897 125.355 15.9578C124.484 15.2016 123.419 14.8234 122.16 14.8234Z" fill="#042F15"/>
<path d="M141.471 13.3963C142.149 12.4449 143.056 11.7252 144.194 11.2373C145.356 10.7494 146.687 10.5055 148.188 10.5055V15.7748C147.559 15.7261 147.135 15.7017 146.917 15.7017C145.295 15.7017 144.025 16.1652 143.105 17.0922C142.185 17.9948 141.725 19.361 141.725 21.1906V30.4852H136.061V10.7982H141.471V13.3963Z" fill="#042F15"/>
<path d="M151.556 3.33325H157.22V30.4852H151.556V3.33325Z" fill="#042F15"/>
<path d="M171.771 30.778C169.714 30.778 167.862 30.351 166.216 29.4972C164.595 28.619 163.324 27.4114 162.404 25.8745C161.484 24.3376 161.024 22.5933 161.024 20.6417C161.024 18.6901 161.484 16.9458 162.404 15.4089C163.324 13.872 164.595 12.6766 166.216 11.8228C167.862 10.9446 169.714 10.5055 171.771 10.5055C173.829 10.5055 175.669 10.9446 177.29 11.8228C178.912 12.6766 180.183 13.872 181.103 15.4089C182.022 16.9458 182.482 18.6901 182.482 20.6417C182.482 22.5933 182.022 24.3376 181.103 25.8745C180.183 27.4114 178.912 28.619 177.29 29.4972C175.669 30.351 173.829 30.778 171.771 30.778ZM171.771 26.0941C173.224 26.0941 174.41 25.6061 175.33 24.6303C176.274 23.6301 176.746 22.3006 176.746 20.6417C176.746 18.9828 176.274 17.6655 175.33 16.6897C174.41 15.6895 173.224 15.1894 171.771 15.1894C170.319 15.1894 169.121 15.6895 168.177 16.6897C167.233 17.6655 166.761 18.9828 166.761 20.6417C166.761 22.3006 167.233 23.6301 168.177 24.6303C169.121 25.6061 170.319 26.0941 171.771 26.0941Z" fill="#042F15"/>
<path d="M195.708 30.778C193.627 30.778 191.751 30.351 190.081 29.4972C188.435 28.619 187.14 27.4114 186.196 25.8745C185.276 24.3376 184.816 22.5933 184.816 20.6417C184.816 18.6901 185.276 16.9458 186.196 15.4089C187.14 13.872 188.435 12.6766 190.081 11.8228C191.751 10.9446 193.627 10.5055 195.708 10.5055C197.766 10.5055 199.557 10.9446 201.082 11.8228C202.631 12.6766 203.757 13.9086 204.459 15.5187L200.065 17.8972C199.049 16.092 197.584 15.1894 195.672 15.1894C194.196 15.1894 192.973 15.6773 192.005 16.6531C191.037 17.6289 190.553 18.9584 190.553 20.6417C190.553 22.325 191.037 23.6545 192.005 24.6303C192.973 25.6061 194.196 26.0941 195.672 26.0941C197.609 26.0941 199.073 25.1914 200.065 23.3862L204.459 25.8013C203.757 27.3626 202.631 28.5824 201.082 29.4606C199.557 30.3388 197.766 30.778 195.708 30.778Z" fill="#042F15"/>
<path d="M215.965 22.7641L213.242 25.472V30.4852H207.578V3.33325H213.242V18.7023L221.52 10.7982H228.274L220.141 19.1414L229 30.4852H222.138L215.965 22.7641Z" fill="#042F15"/>
<path d="M64.801 51.7626C64.0238 51.6914 63.5027 51.5045 63.2378 51.2018C62.9728 50.8814 62.8403 50.5521 62.8403 50.2138C62.8403 50.0002 62.8845 49.7599 62.9728 49.4928C63.0611 49.2258 63.1494 49.0389 63.2378 48.9321C64.0679 47.8996 65.6223 46.0838 67.9009 43.4847C70.1795 40.8856 71.7073 39.1499 72.4845 38.2776L71.4512 38.2242C70.5151 38.1708 69.7291 38.1441 69.0932 38.1441C68.8635 38.1441 68.2807 38.1886 67.3445 38.2776C66.7616 38.3666 66.2317 38.4111 65.7548 38.4111C65.0659 38.4111 64.5625 38.3488 64.2446 38.2242C63.9443 38.0818 63.7588 37.9216 63.6882 37.7435C63.6352 37.5655 63.6087 37.3163 63.6087 36.9959C63.6087 36.7644 63.697 36.533 63.8736 36.3016C64.0679 36.0523 64.2976 35.9099 64.5625 35.8743C65.269 35.7853 66.214 35.7052 67.3975 35.634C68.5809 35.545 69.5436 35.5005 70.2854 35.5005C72.5287 35.5005 74.1096 35.6162 75.0281 35.8476C75.2577 35.9188 75.452 36.0969 75.611 36.3817C75.7699 36.6665 75.8494 36.889 75.8494 37.0493C75.8494 37.2629 75.8141 37.4854 75.7434 37.7168C75.6904 37.9483 75.611 38.1441 75.505 38.3043C75.2754 38.7137 74.7455 39.4614 73.9153 40.5473C73.0851 41.6155 72.2019 42.6925 71.2658 43.7784C70.2766 44.9533 69.261 46.1194 68.2188 47.2765C67.1944 48.4336 66.532 49.1724 66.2317 49.4928C66.7263 49.475 67.4858 49.4305 68.5103 49.3593C70.1706 49.2525 71.4159 49.1991 72.2461 49.1991C72.8996 49.1991 73.6238 49.2436 74.4187 49.3326C75.2312 49.4216 75.8406 49.5997 76.2468 49.8667C76.3705 49.9379 76.4853 50.1426 76.5913 50.4808C76.7149 50.8191 76.7767 51.095 76.7767 51.3086C76.7767 51.5401 76.6619 51.7448 76.4323 51.9228C76.2203 52.1008 75.9201 52.1898 75.5315 52.1898C75.4961 52.1898 75.1076 52.1542 74.3657 52.083C72.829 51.905 71.8133 51.816 71.3188 51.816L69.4376 51.8427C68.5898 51.8783 67.945 51.8961 67.5035 51.8961C66.426 51.8961 65.5252 51.8516 64.801 51.7626Z" fill="#042F15"/>
<path d="M89.0529 43.6716C89.1942 43.9208 89.309 44.2858 89.3973 44.7664C89.4856 45.2293 89.5298 45.6476 89.5298 46.0215C89.5298 46.7157 89.3796 47.7037 89.0794 48.9855C87.8606 51.2285 86.0589 52.3501 83.6744 52.3501C82.7912 52.3501 81.8904 52.0563 80.9719 51.4689C80.0534 50.8814 79.4175 50.2049 79.0642 49.4394C78.5873 47.9085 78.3489 46.9383 78.3489 46.5288C78.3489 45.8167 78.499 45.0601 78.7993 44.2591C79.1172 43.458 79.5146 42.7637 79.9915 42.1762C80.2918 41.7668 80.8306 41.4196 81.6077 41.1348C82.3849 40.8322 83.0915 40.6809 83.7274 40.6809C84.9638 40.6809 86.0148 40.9212 86.8803 41.4018C87.7458 41.8647 88.47 42.6213 89.0529 43.6716ZM86.7478 47.9708C86.8361 47.7393 86.8803 47.143 86.8803 46.1817C86.8803 45.6654 86.7831 45.1581 86.5888 44.6596C86.4122 44.1611 86.1472 43.7339 85.794 43.3779C85.7586 43.3423 85.6615 43.2889 85.5025 43.2176C85.3435 43.1286 85.1228 43.0485 84.8401 42.9773C84.5752 42.8883 84.2661 42.8438 83.9128 42.8438C82.9237 42.8438 82.1995 43.2443 81.7402 44.0454C81.281 44.8465 81.0513 45.7544 81.0513 46.7691C81.0513 46.9472 81.0955 47.2854 81.1838 47.7838C81.2898 48.2823 81.3781 48.5938 81.4488 48.7185C81.5018 48.8431 81.6342 49.0211 81.8462 49.2525C82.0758 49.4661 82.3496 49.662 82.6675 49.84C83.0031 50.0002 83.3476 50.0803 83.7009 50.0803C84.4957 50.0803 85.1316 49.8934 85.6085 49.5195C86.0854 49.1279 86.4652 48.6116 86.7478 47.9708Z" fill="#042F15"/>
<path d="M102.558 43.6716C102.699 43.9208 102.814 44.2858 102.902 44.7664C102.991 45.2293 103.035 45.6476 103.035 46.0215C103.035 46.5021 102.982 47.0362 102.876 47.6236C102.77 48.2111 102.673 48.665 102.584 48.9855C101.366 51.2285 99.564 52.3501 97.1794 52.3501C96.2962 52.3501 95.3954 52.0563 94.4769 51.4689C93.5584 50.8814 92.9225 50.2049 92.5693 49.4394C92.0923 47.9263 91.8539 46.9561 91.8539 46.5288C91.8539 45.8167 92.004 45.0601 92.3043 44.2591C92.6222 43.458 93.0197 42.7637 93.4966 42.1762C93.8145 41.7668 94.3621 41.4196 95.1393 41.1348C95.9165 40.8322 96.623 40.6809 97.2589 40.6809C98.4953 40.6809 99.5375 40.9212 100.385 41.4018C101.251 41.8647 101.975 42.6213 102.558 43.6716ZM100.253 47.9708C100.341 47.7928 100.385 47.1964 100.385 46.1817C100.385 45.6654 100.288 45.1581 100.094 44.6596C99.9172 44.1611 99.6523 43.7339 99.299 43.3779C99.2637 43.3423 99.1665 43.2889 99.0076 43.2176C98.8486 43.1286 98.6278 43.0485 98.3452 42.9773C98.0802 42.8883 97.7711 42.8438 97.4179 42.8438C96.4287 42.8438 95.7045 43.2443 95.2453 44.0454C94.786 44.8465 94.5564 45.7544 94.5564 46.7691C94.5564 46.9294 94.6094 47.2587 94.7154 47.7571C94.8213 48.2556 94.9008 48.576 94.9538 48.7185C95.0951 48.9677 95.3777 49.2614 95.8017 49.5997C96.2432 49.9201 96.7201 50.0803 97.2324 50.0803C98.0272 50.0803 98.6543 49.8934 99.1135 49.5195C99.5904 49.1279 99.9702 48.6116 100.253 47.9708Z" fill="#042F15"/>
<path d="M117.564 44.2224C118.016 44.3213 118.362 44.5191 118.605 44.8158C118.853 45.1059 118.977 45.4818 118.977 45.9433C118.977 46.5367 118.758 46.9949 118.32 47.318C117.888 47.6345 117.247 47.7927 116.397 47.7927H113.237V40.8697H116.2C116.966 40.8697 117.558 41.0247 117.976 41.3346C118.402 41.6444 118.614 42.0829 118.614 42.6499C118.614 43.0323 118.519 43.3587 118.33 43.629C118.147 43.8928 117.891 44.0906 117.564 44.2224ZM113.963 41.473V43.9851H116.151C116.707 43.9851 117.136 43.8796 117.437 43.6686C117.738 43.451 117.888 43.1378 117.888 42.729C117.888 42.3203 117.738 42.0104 117.437 41.7994C117.136 41.5818 116.707 41.473 116.151 41.473H113.963ZM116.387 47.1894C117.002 47.1894 117.466 47.0839 117.78 46.8729C118.094 46.662 118.251 46.3323 118.251 45.8839C118.251 45.0202 117.63 44.5884 116.387 44.5884H113.963V47.1894H116.387Z" fill="#F1FEF6"/>
<path d="M121.155 43.6092C121.319 43.2598 121.561 42.9961 121.881 42.8181C122.208 42.64 122.611 42.551 123.088 42.551V43.2334L122.921 43.2235C122.378 43.2235 121.953 43.3917 121.646 43.7279C121.338 44.0642 121.184 44.5356 121.184 45.1422V47.7927H120.488V42.5906H121.155V43.6092Z" fill="#F1FEF6"/>
<path d="M124.35 42.5906H125.046V47.7927H124.35V42.5906ZM124.703 41.4532C124.559 41.4532 124.438 41.4038 124.34 41.3049C124.242 41.206 124.193 41.0873 124.193 40.9488C124.193 40.817 124.242 40.7016 124.34 40.6027C124.438 40.5038 124.559 40.4543 124.703 40.4543C124.847 40.4543 124.968 40.5038 125.066 40.6027C125.164 40.695 125.213 40.8071 125.213 40.939C125.213 41.084 125.164 41.206 125.066 41.3049C124.968 41.4038 124.847 41.4532 124.703 41.4532Z" fill="#F1FEF6"/>
<path d="M128.369 47.8422C127.95 47.8422 127.548 47.7828 127.162 47.6641C126.782 47.5389 126.485 47.3839 126.269 47.1993L126.583 46.6455C126.799 46.8169 127.07 46.9587 127.397 47.0707C127.724 47.1762 128.064 47.229 128.418 47.229C128.889 47.229 129.235 47.1565 129.458 47.0114C129.687 46.8598 129.801 46.6488 129.801 46.3784C129.801 46.1872 129.739 46.0389 129.615 45.9334C129.491 45.8213 129.334 45.7389 129.144 45.6861C128.954 45.6268 128.702 45.5708 128.388 45.518C127.97 45.4389 127.633 45.3598 127.377 45.2807C127.122 45.1949 126.903 45.0532 126.72 44.8554C126.543 44.6576 126.455 44.384 126.455 44.0345C126.455 43.5994 126.635 43.2433 126.995 42.9664C127.355 42.6895 127.855 42.551 128.496 42.551C128.83 42.551 129.163 42.5972 129.497 42.6895C129.831 42.7752 130.106 42.8906 130.321 43.0356L130.017 43.5994C129.592 43.3027 129.085 43.1543 128.496 43.1543C128.051 43.1543 127.714 43.2334 127.485 43.3917C127.263 43.5499 127.152 43.7576 127.152 44.0147C127.152 44.2125 127.214 44.3708 127.338 44.4895C127.469 44.6081 127.629 44.6971 127.819 44.7565C128.009 44.8092 128.27 44.8653 128.604 44.9246C129.016 45.0037 129.347 45.0829 129.595 45.162C129.844 45.2411 130.056 45.3763 130.233 45.5675C130.41 45.7587 130.498 46.0224 130.498 46.3587C130.498 46.8136 130.308 47.1762 129.929 47.4466C129.556 47.7103 129.036 47.8422 128.369 47.8422Z" fill="#F1FEF6"/>
<path d="M134.504 47.4762C134.373 47.5949 134.21 47.6872 134.014 47.7531C133.824 47.8125 133.624 47.8422 133.415 47.8422C132.931 47.8422 132.558 47.7103 132.296 47.4466C132.035 47.1828 131.904 46.8103 131.904 46.329V43.184H130.981V42.5906H131.904V41.4532H132.601V42.5906H134.171V43.184H132.601V46.2894C132.601 46.5993 132.676 46.8367 132.826 47.0015C132.983 47.1598 133.206 47.2389 133.494 47.2389C133.637 47.2389 133.775 47.2158 133.906 47.1696C134.043 47.1235 134.161 47.0576 134.259 46.9718L134.504 47.4762Z" fill="#F1FEF6"/>
<path d="M137.7 47.8422C137.203 47.8422 136.755 47.7301 136.356 47.5059C135.957 47.2751 135.643 46.9587 135.414 46.5565C135.185 46.1543 135.07 45.6993 135.07 45.1916C135.07 44.684 135.185 44.229 135.414 43.8268C135.643 43.4246 135.957 43.1115 136.356 42.8873C136.755 42.6631 137.203 42.551 137.7 42.551C138.197 42.551 138.646 42.6631 139.045 42.8873C139.444 43.1115 139.754 43.4246 139.977 43.8268C140.206 44.229 140.32 44.684 140.32 45.1916C140.32 45.6993 140.206 46.1543 139.977 46.5565C139.754 46.9587 139.444 47.2751 139.045 47.5059C138.646 47.7301 138.197 47.8422 137.7 47.8422ZM137.7 47.2191C138.067 47.2191 138.394 47.1367 138.682 46.9718C138.976 46.8004 139.205 46.5598 139.369 46.2499C139.532 45.94 139.614 45.5872 139.614 45.1916C139.614 44.796 139.532 44.4433 139.369 44.1334C139.205 43.8235 138.976 43.5862 138.682 43.4213C138.394 43.2499 138.067 43.1642 137.7 43.1642C137.334 43.1642 137.004 43.2499 136.709 43.4213C136.421 43.5862 136.192 43.8235 136.022 44.1334C135.859 44.4433 135.777 44.796 135.777 45.1916C135.777 45.5872 135.859 45.94 136.022 46.2499C136.192 46.5598 136.421 46.8004 136.709 46.9718C137.004 47.1367 137.334 47.2191 137.7 47.2191Z" fill="#F1FEF6"/>
<path d="M141.743 40.4543H142.44V47.7927H141.743V40.4543Z" fill="#F1FEF6"/>
<rect x="106.23" y="36.4192" width="2.94391" height="15.824" fill="#10A74C"/>
</svg>
